<?xml version="1.0" standalone="no"?>
<!DOCTYPE svg PUBLIC "-//W3C//DTD SVG 20010904//EN"
 "http://www.w3.org/TR/2001/REC-SVG-20010904/DTD/svg10.dtd">
<svg version="1.0" xmlns="http://www.w3.org/2000/svg"
 width="1280.000000pt" height="789.000000pt" viewBox="0 0 1280.000000 789.000000"
 preserveAspectRatio="xMidYMid meet">
<metadata>
Created by potrace 1.15, written by Peter Selinger 2001-2017
</metadata>
<g transform="translate(0.000000,789.000000) scale(0.100000,-0.100000)"
fill="#000000" stroke="none">
<path d="M5972 7870 c-120 -43 -275 -188 -338 -315 -65 -132 -57 -246 23 -335
70 -78 215 -140 329 -140 54 0 143 26 191 56 90 57 213 149 213 161 0 26 -32
12 -123 -53 -164 -118 -258 -145 -383 -109 -222 64 -303 214 -216 400 75 160
238 301 362 313 42 4 49 1 70 -24 20 -27 22 -36 17 -116 -6 -88 0 -110 23 -83
18 22 25 168 10 205 -25 59 -86 73 -178 40z"/>
<path d="M6626 7821 c-3 -4 3 -55 14 -112 11 -57 20 -109 20 -115 0 -6 -33
-18 -74 -28 -74 -17 -104 -35 -91 -56 8 -12 38 -13 51 -1 10 10 116 42 121 37
2 -2 13 -55 25 -117 21 -118 30 -141 49 -122 7 7 4 42 -10 119 -12 60 -21 114
-21 120 0 6 57 26 128 43 200 50 202 51 202 66 0 21 -5 20 -178 -21 -84 -20
-155 -34 -159 -31 -3 4 -14 52 -24 107 -10 56 -21 105 -24 110 -8 12 -22 13
-29 1z"/>
<path d="M7096 7822 c-3 -5 -1 -46 4 -91 l9 -82 -39 -38 c-32 -31 -40 -45 -40
-74 0 -51 26 -49 40 3 6 22 19 44 29 50 17 9 19 4 25 -58 11 -115 17 -142 31
-142 20 0 22 15 13 92 -15 146 -22 128 59 148 76 20 153 55 153 70 0 19 -19
19 -62 0 -24 -10 -71 -26 -103 -35 -69 -17 -74 -14 -76 55 -1 25 -4 58 -8 74
-6 30 -25 44 -35 28z"/>
<path d="M7773 6241 c-90 -56 -149 -308 -112 -483 16 -77 61 -169 105 -218
126 -140 307 -90 447 123 35 53 42 87 19 87 -5 0 -22 -19 -37 -42 -41 -62
-124 -146 -170 -173 -122 -72 -240 -24 -295 121 -28 74 -39 265 -21 370 15 83
47 160 75 179 48 34 94 17 210 -75 42 -33 80 -60 86 -60 23 0 6 32 -47 87 -94
97 -189 127 -260 84z"/>
<path d="M8815 6215 c-8 -14 -22 -36 -30 -50 -27 -44 -176 -205 -190 -205 -7
0 -51 18 -98 41 -79 38 -107 43 -107 18 0 -5 38 -28 85 -51 47 -23 85 -45 85
-48 0 -3 -22 -28 -50 -55 l-50 -49 -69 33 c-38 19 -74 31 -80 27 -17 -11 -5
-24 47 -51 80 -41 79 -34 17 -121 -76 -105 -80 -113 -60 -120 9 -4 17 -5 19
-3 2 2 31 43 65 92 34 48 65 87 68 87 3 0 32 -16 64 -36 l59 -35 -40 -50 c-22
-28 -40 -57 -40 -64 0 -33 22 -22 61 30 23 30 46 55 51 55 5 0 28 -13 51 -29
71 -48 179 -102 200 -99 27 4 34 26 10 34 -42 13 -92 38 -160 80 l-73 45 66
56 c60 51 68 55 89 43 41 -22 129 -99 142 -125 15 -28 31 -32 39 -10 9 22 -40
81 -107 128 -32 23 -59 46 -59 50 0 5 16 27 35 50 40 47 97 155 89 168 -13 21
-31 5 -62 -55 -18 -35 -48 -81 -67 -104 l-35 -40 -73 42 -74 41 80 85 c90 95
137 163 137 197 0 30 -16 29 -35 -2z m-140 -349 c33 -18 60 -38 60 -43 0 -6
-26 -32 -58 -58 l-58 -48 -35 19 c-19 10 -47 29 -62 41 l-27 22 50 50 c27 28
54 51 60 51 5 0 37 -15 70 -34z"/>
<path d="M4439 6158 c-52 -55 -95 -196 -129 -426 -20 -135 -20 -152 4 -152 13
0 36 112 36 173 0 39 14 46 125 62 61 8 117 18 126 20 14 5 18 -9 28 -92 6
-54 15 -143 19 -198 5 -79 10 -100 22 -100 12 0 15 16 12 95 -2 82 -17 258
-25 292 -1 6 35 22 81 36 73 22 99 41 75 55 -5 3 -43 -6 -86 -18 -55 -16 -79
-20 -82 -11 -2 6 -11 38 -20 71 -32 113 -100 215 -144 215 -11 0 -30 -10 -42
-22z m91 -65 c29 -49 80 -206 71 -216 -8 -8 -223 -38 -230 -31 -5 4 14 94 35
169 33 117 82 148 124 78z"/>
<path d="M4200 6148 c-5 -13 -46 -125 -90 -249 -43 -125 -90 -250 -102 -279
l-23 -52 -59 144 c-66 161 -150 333 -167 343 -6 4 -15 3 -21 -3 -6 -6 8 -44
41 -110 28 -55 78 -167 112 -249 33 -81 67 -155 75 -163 34 -35 78 33 130 200
20 63 61 183 90 266 30 83 54 156 54 162 0 21 -30 13 -40 -10z"/>
<path d="M10120 6157 c0 -9 5 -19 10 -22 6 -4 10 -62 10 -140 l0 -134 -42 -3
c-30 -2 -43 -8 -43 -18 0 -10 13 -16 43 -18 l42 -3 0 -165 c0 -152 1 -165 18
-162 15 3 17 20 20 165 l2 163 188 2 c158 3 187 5 187 18 0 13 -29 15 -187 18
l-188 2 0 126 c0 116 1 126 18 119 9 -4 53 -16 96 -27 68 -17 103 -20 252 -16
118 2 177 7 186 16 6 6 9 14 6 17 -3 4 -100 7 -214 8 -202 3 -212 4 -284 31
-104 39 -120 42 -120 23z"/>
<path d="M3507 6088 c-9 -7 -29 -37 -45 -66 l-29 -52 -12 55 c-8 34 -18 55
-26 55 -24 0 -24 -14 -4 -95 19 -71 19 -85 7 -145 -18 -92 -15 -255 5 -302 21
-46 55 -72 74 -56 16 13 18 144 3 237 -6 35 -8 66 -5 69 8 9 112 15 138 8 23
-5 24 -11 36 -138 7 -73 13 -140 14 -148 1 -8 11 -16 21 -18 18 -4 19 1 12 92
-3 53 -9 116 -12 140 l-7 44 34 -7 c40 -9 59 -4 59 15 0 8 -6 14 -12 14 -7 0
-29 5 -49 10 -35 10 -36 11 -53 92 -36 171 -89 240 -149 196z m98 -154 c13
-49 22 -89 22 -90 -1 -1 -39 -4 -84 -7 -80 -6 -81 -6 -87 18 -7 29 22 111 60
168 l26 40 20 -21 c11 -11 30 -58 43 -108z m-149 -311 c5 -65 4 -93 -4 -93
-25 0 -43 163 -25 230 7 24 7 23 15 -10 4 -19 11 -77 14 -127z"/>
<path d="M10896 5965 c-53 -108 -137 -208 -257 -305 -119 -97 -159 -135 -159
-148 0 -22 66 -34 234 -42 180 -9 210 -7 203 14 -2 7 -64 14 -181 18 -98 5
-185 12 -194 17 -13 7 -7 15 33 42 103 72 201 157 252 219 89 110 155 260 115
260 -5 0 -26 -34 -46 -75z"/>
<path d="M11453 6009 c-23 -16 -69 -65 -102 -110 -34 -44 -61 -78 -61 -76 0 3
7 21 16 42 16 39 12 69 -8 63 -17 -6 -197 -431 -187 -442 13 -14 33 8 78 84
35 58 47 71 79 80 66 18 101 12 161 -28 11 -8 0 -40 -54 -161 -41 -93 -65
-157 -61 -168 11 -27 28 -1 91 137 162 356 206 528 150 590 -25 27 -53 24
-102 -11z m75 -21 c26 -26 14 -106 -40 -255 l-30 -83 -44 26 c-37 22 -54 26
-95 22 -40 -4 -49 -2 -45 9 13 32 140 216 175 253 39 42 59 48 79 28z"/>
<path d="M3020 5985 c-58 -19 -131 -40 -163 -46 -60 -12 -76 -24 -59 -41 15
-15 124 7 255 50 116 39 135 38 148 -10 13 -48 21 -798 10 -911 -16 -167 -56
-234 -145 -244 -40 -5 -48 -2 -75 24 -53 54 -64 147 -32 275 26 99 57 171 131
303 93 164 103 186 91 198 -12 12 -41 -8 -41 -27 0 -7 -21 -45 -46 -86 -68
-110 -121 -219 -156 -323 -27 -77 -32 -107 -32 -187 -1 -83 2 -100 24 -139 29
-50 78 -81 130 -81 50 0 124 49 148 97 44 88 47 125 45 573 -3 444 -10 541
-45 585 -26 34 -59 32 -188 -10z"/>
<path d="M11677 5782 c-10 -10 -17 -24 -17 -30 0 -27 60 -77 173 -143 136 -81
187 -125 187 -162 0 -57 -85 -115 -210 -143 -108 -25 -158 -8 -174 59 -8 35
-36 36 -36 2 0 -38 25 -79 55 -93 69 -32 230 -3 324 57 135 87 107 173 -95
296 -195 119 -207 129 -160 141 31 7 120 -18 216 -62 69 -32 110 -38 95 -14
-10 17 -115 66 -189 89 -86 26 -147 27 -169 3z"/>
<path d="M12446 5520 c-96 -114 -162 -213 -231 -343 -57 -107 -66 -137 -40
-137 9 0 34 38 61 91 l45 92 72 -5 c67 -4 197 -49 197 -67 0 -4 -6 -15 -14
-26 -26 -38 -87 -198 -81 -213 10 -26 29 3 80 121 26 59 50 107 54 107 3 0 38
-7 76 -15 92 -19 135 -19 135 0 0 8 -12 17 -27 21 -72 16 -147 35 -151 39 -2
2 20 43 48 91 58 94 96 194 101 264 5 56 -21 64 -34 10 -25 -105 -52 -176 -98
-251 -28 -46 -54 -87 -58 -92 -4 -4 -34 2 -68 13 -33 12 -93 26 -133 33 l-72
12 51 76 c29 42 83 114 121 160 39 46 70 90 70 97 0 31 -34 5 -104 -78z"/>
<path d="M6255 5074 c-11 -2 -45 -9 -75 -15 -61 -13 -133 -46 -196 -91 -22
-16 -69 -35 -103 -43 -134 -32 -245 -117 -303 -233 -18 -37 -34 -69 -35 -71
-2 -2 -12 4 -23 14 -15 13 -23 16 -31 8 -8 -8 -4 -21 14 -45 23 -30 25 -38 17
-73 -5 -22 -10 -83 -10 -137 0 -298 151 -640 362 -815 93 -77 225 -133 317
-133 l28 0 7 -147 c17 -367 26 -592 25 -638 0 -43 -2 -47 -12 -31 -180 283
-292 398 -445 456 -53 21 -77 22 -342 25 -278 2 -319 5 -471 41 l-67 16 26 25
c24 24 24 29 19 116 -6 109 -31 237 -57 287 -37 73 -143 140 -222 140 -17 0
-16 5 10 43 55 81 66 152 33 222 -37 81 -112 121 -254 136 -131 14 -251 34
-417 68 -80 17 -194 34 -255 38 -100 7 -113 6 -153 -13 -24 -12 -48 -27 -53
-35 -14 -23 -11 68 4 104 8 18 21 38 30 45 23 19 161 16 412 -8 116 -12 312
-25 436 -29 250 -10 279 -16 324 -75 56 -73 74 -284 35 -408 -25 -79 -25 -101
-3 -96 26 5 54 108 60 219 10 182 -30 307 -116 357 -41 24 -57 27 -215 34 -94
5 -304 20 -466 33 -162 14 -335 25 -383 25 -84 0 -90 -2 -117 -28 -58 -59 -63
-172 -14 -367 23 -91 78 -268 106 -337 11 -29 33 -37 40 -16 2 6 10 8 16 4 9
-5 6 -13 -10 -26 -17 -14 -20 -21 -12 -30 9 -9 17 -9 33 0 20 10 23 7 37 -27
37 -94 51 -120 83 -156 79 -88 194 -119 441 -122 l175 -1 145 -58 c352 -142
528 -174 875 -162 146 5 192 3 240 -9 149 -39 271 -155 437 -416 l71 -113 -12
-215 c-37 -657 -167 -976 -433 -1065 -10 -3 -18 -10 -18 -16 0 -45 136 15 213
95 92 94 163 238 207 424 l23 94 37 -104 c124 -347 314 -710 454 -866 47 -52
126 -100 146 -88 20 12 9 31 -24 43 -44 16 -119 98 -193 210 -118 178 -348
669 -384 819 -7 27 -15 51 -18 56 -4 4 -2 46 5 95 7 48 18 192 25 320 l13 233
120 117 c231 224 489 423 661 510 142 72 220 85 325 57 92 -25 270 -55 327
-55 81 0 179 23 378 90 99 33 184 60 190 60 7 0 0 -51 -18 -137 -33 -165 -34
-265 -1 -310 11 -15 42 -39 70 -53 45 -23 59 -25 184 -24 170 0 190 9 230 97
69 155 105 329 105 512 0 195 -30 284 -119 363 -74 65 -218 80 -290 31 -36
-24 -49 -59 -22 -59 8 0 28 11 44 25 36 30 91 33 169 10 68 -20 136 -94 161
-174 26 -87 23 -356 -6 -473 -28 -114 -71 -222 -103 -260 l-25 -31 -145 -1
c-121 -1 -149 2 -177 17 -70 38 -77 118 -31 337 60 284 98 565 80 583 -18 18
-30 -4 -36 -71 -8 -90 -24 -205 -37 -274 l-10 -57 -197 -65 c-232 -78 -306
-96 -386 -96 -65 0 -192 20 -325 52 -130 31 -227 10 -400 -84 -174 -94 -439
-307 -651 -520 l-67 -68 -7 168 c-3 92 -10 255 -16 362 -5 107 -9 219 -9 248
l0 52 44 0 c64 0 210 45 296 92 205 110 357 270 432 455 56 139 50 315 -14
488 -32 83 -37 118 -24 147 10 21 -22 38 -34 19 -5 -9 -24 12 -56 61 -103 155
-277 296 -423 342 -75 24 -187 39 -226 30z m206 -64 c163 -50 357 -220 449
-392 l23 -45 -44 -64 -44 -64 -6 50 c-16 128 -107 196 -238 181 -75 -9 -215
-66 -219 -90 -3 -15 1 -18 20 -14 12 3 32 9 42 13 16 7 18 5 12 -11 -4 -10
-10 -36 -13 -56 -5 -36 -7 -37 -37 -30 -17 3 -47 7 -66 7 -30 0 -37 5 -55 40
-65 121 -316 166 -434 78 -34 -26 -66 -86 -56 -103 4 -6 -9 -10 -28 -10 -20 0
-46 -9 -61 -21 l-27 -21 -54 58 c-60 65 -59 64 -16 153 51 106 184 206 290
218 20 2 66 7 103 11 37 4 70 10 73 14 13 12 -6 28 -33 28 l-27 0 25 20 c31
24 120 59 180 70 63 12 166 4 241 -20z m249 -386 c59 -24 82 -62 88 -146 5
-70 0 -96 -41 -212 -25 -70 -82 -136 -119 -136 -81 0 -159 154 -159 313 0 123
32 170 113 169 25 -1 41 4 45 14 7 18 23 18 73 -2z m-534 -38 c42 -20 58 -33
69 -60 19 -45 20 -42 -16 -50 -41 -8 -37 -42 4 -38 31 3 33 -7 16 -90 -29
-135 -91 -200 -190 -200 -102 0 -269 114 -320 218 -20 42 -20 46 -5 69 14 21
24 25 66 25 36 0 50 4 50 14 0 8 -7 16 -15 20 -12 4 -13 10 -3 33 30 71 86 96
206 89 60 -4 99 -12 138 -30z m836 -221 c27 -107 22 -272 -11 -357 -70 -182
-255 -366 -463 -462 -198 -92 -399 -94 -555 -5 -193 110 -369 395 -418 678
-16 89 -20 268 -7 288 11 17 119 -95 157 -161 85 -150 298 -273 411 -236 89
30 144 117 168 270 l11 75 40 -1 c22 0 52 -4 68 -7 23 -6 27 -13 27 -43 0 -50
45 -178 80 -229 41 -60 76 -85 118 -85 68 0 121 64 178 216 14 37 51 104 81
148 l57 79 19 -44 c10 -24 28 -80 39 -124z m-3052 -190 c47 -8 139 -25 205
-39 66 -14 172 -30 236 -35 178 -17 234 -39 278 -112 27 -43 27 -101 1 -155
-37 -75 -23 -71 -350 -85 -325 -13 -376 -8 -447 37 -49 32 -79 76 -110 161
-21 58 -62 219 -63 247 0 11 132 1 250 -19z m-284 -12 c65 -294 116 -388 232
-435 53 -21 71 -22 257 -22 l200 1 -85 -13 c-47 -8 -155 -16 -240 -19 -85 -4
-177 -11 -204 -17 -43 -9 -50 -8 -58 7 -6 9 -24 23 -42 30 -29 13 -35 23 -73
142 -23 70 -49 165 -59 211 l-17 82 28 30 c36 37 53 38 61 3z m1099 -499 c82
-42 127 -150 140 -339 6 -72 4 -94 -8 -110 -15 -20 -16 -20 -69 4 -29 12 -100
41 -158 64 l-105 41 -220 1 c-286 2 -372 22 -455 105 -42 42 -96 168 -80 184
5 5 88 13 182 17 153 7 290 21 468 49 30 5 102 8 160 7 84 -2 113 -6 145 -23z"/>
<path d="M6588 4418 c-20 -22 -28 -39 -25 -55 3 -14 -1 -23 -9 -23 -18 0 -28
-20 -16 -32 17 -17 82 1 108 29 38 41 29 113 -14 113 -8 0 -27 -14 -44 -32z
m42 -38 c-6 -11 -19 -24 -30 -30 -19 -10 -19 -9 1 25 21 36 48 40 29 5z"/>
<path d="M5946 4478 c-9 -12 -16 -32 -16 -45 0 -12 -5 -33 -11 -47 -14 -29 2
-81 28 -90 28 -11 101 44 128 94 16 30 4 60 -24 60 -10 0 -28 11 -41 25 -29
31 -44 31 -64 3z m39 -28 c3 -5 1 -10 -4 -10 -6 0 -11 5 -11 10 0 6 2 10 4 10
3 0 8 -4 11 -10z"/>
<path d="M6355 4010 c-7 -11 37 -40 112 -72 29 -13 53 -26 53 -30 0 -15 -100
-123 -140 -149 -80 -54 -147 -49 -298 21 -81 38 -112 44 -112 20 0 -14 104
-65 197 -96 136 -46 209 -21 330 111 l68 75 95 -9 c100 -9 110 -8 110 13 0 15
-51 26 -117 26 -29 0 -48 6 -60 19 -12 13 -23 17 -33 11 -9 -6 -40 5 -92 31
-80 40 -102 46 -113 29z"/>
<path d="M5946 3860 c-20 -28 -57 -65 -81 -82 -44 -31 -59 -58 -32 -58 29 0
108 62 141 112 20 29 36 58 36 65 0 28 -30 10 -64 -37z"/>
<path d="M4630 3663 c-35 -5 -110 -45 -110 -59 0 -22 13 -22 63 2 29 13 62 24
74 24 27 0 40 19 22 31 -8 5 -16 8 -19 7 -3 0 -16 -2 -30 -5z"/>
<path d="M4021 3606 c-65 -23 -48 -54 20 -36 30 8 44 8 54 0 18 -15 70 -9 70
8 0 14 -66 42 -95 41 -8 0 -30 -6 -49 -13z"/>
<path d="M4257 3573 c-4 -3 -7 -12 -7 -20 0 -9 18 -13 68 -13 74 0 88 5 71 27
-12 13 -120 19 -132 6z"/>
<path d="M4677 3544 c-3 -3 -50 -9 -104 -13 -78 -5 -98 -9 -98 -21 0 -36 246
-14 253 23 3 12 -3 17 -21 17 -13 0 -26 -3 -30 -6z"/>
<path d="M4080 3498 c-19 -5 -41 -16 -49 -23 -22 -21 7 -29 56 -16 58 16 110
13 154 -10 47 -24 80 -19 58 8 -38 45 -139 64 -219 41z"/>
<path d="M4400 3406 c-38 -14 -48 -42 -15 -39 71 6 120 20 120 33 0 20 -59 23
-105 6z"/>
<path d="M4733 3405 c-42 -18 -46 -51 -5 -40 15 4 46 9 70 12 33 4 42 9 42 24
0 15 -7 19 -37 19 -21 -1 -53 -7 -70 -15z"/>
<path d="M2435 4429 c-101 -67 -178 -95 -286 -104 -103 -9 -119 -13 -119 -32
0 -14 11 -15 93 -9 50 3 115 12 142 20 127 34 360 189 278 185 -10 0 -58 -27
-108 -60z"/>
<path d="M9721 4409 c-5 -13 -15 -87 -21 -164 -17 -219 -21 -245 -36 -245 -18
0 -18 -26 -1 -37 11 -7 11 -38 -1 -180 -15 -177 -13 -214 11 -194 9 7 18 63
26 163 18 229 4 204 124 212 56 4 110 9 119 12 16 5 18 -11 20 -193 3 -168 5
-198 18 -198 13 0 15 30 18 201 l2 201 85 22 c86 23 105 35 87 53 -9 9 -31 5
-144 -28 -23 -7 -24 28 -2 171 17 114 14 150 -10 124 -13 -14 -46 -211 -46
-275 0 -38 -6 -40 -148 -50 l-103 -7 5 49 c17 152 27 367 17 377 -7 7 -13 3
-20 -14z"/>
<path d="M1586 4371 c-25 -39 -66 -331 -66 -466 0 -222 47 -306 165 -293 77 9
265 128 265 169 0 26 -13 24 -47 -8 -49 -46 -180 -115 -226 -120 -36 -4 -46
-1 -69 22 -35 34 -48 78 -55 180 -6 87 15 271 47 418 11 49 17 93 14 98 -7 12
-21 11 -28 0z"/>
<path d="M10580 4329 c-126 -8 -210 -22 -353 -60 -78 -22 -97 -33 -80 -50 6
-6 53 2 125 20 140 36 239 50 428 59 119 6 145 10 145 22 0 18 -80 21 -265 9z"/>
<path d="M10851 4246 c-6 -7 -18 -46 -25 -85 -18 -91 -26 -100 -23 -25 2 47
-1 59 -14 62 -22 4 -29 -61 -28 -273 1 -181 9 -269 26 -286 22 -22 32 29 48
242 15 200 31 324 34 258 2 -54 32 -202 46 -230 9 -16 27 -36 40 -45 24 -15
28 -15 80 11 52 25 131 103 213 210 l23 30 -6 -38 c-16 -99 -36 -295 -42 -409
-5 -113 -4 -128 10 -128 18 0 23 27 32 175 10 152 26 286 46 377 30 136 10
153 -66 57 -173 -220 -261 -287 -299 -226 -8 12 -20 74 -26 137 -10 97 -38
200 -53 200 -3 0 -10 -6 -16 -14z"/>
<path d="M1342 4238 c-7 -7 -12 -48 -12 -102 -1 -107 -22 -237 -45 -272 -38
-58 -78 -26 -201 161 -117 178 -133 182 -115 32 6 -51 15 -157 21 -237 14
-209 45 -295 81 -228 18 33 5 175 -30 327 -17 73 -31 136 -31 139 0 3 23 -28
51 -69 76 -110 125 -165 164 -183 40 -19 62 -12 93 30 l19 27 7 -61 c4 -34 12
-76 18 -94 16 -48 56 -98 79 -98 26 0 24 18 -4 40 -13 10 -29 38 -36 62 -15
49 -30 251 -31 415 0 111 -6 133 -28 111z m-305 -540 c-3 -8 -6 -5 -6 6 -1 11
2 17 5 13 3 -3 4 -12 1 -19z"/>
<path d="M1971 4201 c-13 -31 -21 -71 -21 -105 0 -47 4 -60 30 -89 40 -46 108
-74 227 -93 158 -25 203 -35 203 -44 0 -15 -120 -92 -180 -117 -75 -31 -149
-31 -177 0 -11 12 -24 32 -28 45 -8 28 -35 29 -35 2 0 -34 28 -79 60 -95 40
-20 109 -19 175 4 101 36 242 135 233 163 -7 21 -53 38 -145 54 -137 23 -184
35 -236 61 -80 40 -107 113 -71 198 15 37 13 65 -4 65 -5 0 -19 -22 -31 -49z"/>
<path d="M10471 4212 c-21 -22 -44 -61 -54 -91 -44 -138 -45 -511 -1 -439 4 7
7 51 5 98 -2 105 13 257 34 327 10 34 29 65 51 87 33 32 38 56 12 56 -6 0 -27
-17 -47 -38z"/>
<path d="M825 4140 c-81 -70 -163 -114 -241 -130 -43 -9 -54 -15 -52 -28 4
-21 46 -18 123 8 39 13 55 15 55 7 0 -39 45 -305 65 -390 28 -116 63 -228 76
-242 6 -5 13 -5 19 1 7 7 3 35 -14 90 -35 112 -63 238 -86 389 -27 175 -26
187 8 207 45 27 142 118 142 134 0 26 -25 14 -95 -46z"/>
<path d="M11826 4171 c-3 -5 -30 -82 -59 -172 -58 -176 -90 -246 -200 -434
-78 -135 -89 -178 -45 -183 15 -2 87 11 159 29 73 17 207 44 298 58 126 20
166 30 166 41 0 8 -7 16 -15 17 -8 2 -147 -21 -307 -50 -161 -29 -293 -50
-293 -46 0 3 8 17 19 30 42 55 162 276 200 372 50 125 113 326 105 338 -7 12
-21 12 -28 0z"/>
<path d="M334 3973 c4 -65 13 -153 20 -197 l13 -78 -104 -51 c-57 -27 -105
-48 -106 -46 -2 2 -22 73 -45 157 -44 159 -78 252 -94 252 -18 0 -20 -30 -4
-77 32 -98 96 -355 90 -365 -3 -5 0 -17 8 -26 7 -9 29 -63 48 -119 27 -79 39
-103 52 -103 23 0 23 -3 -12 115 -16 55 -30 105 -30 111 0 10 180 104 200 104
4 0 20 -80 34 -177 40 -265 40 -266 52 -270 6 -2 14 2 16 9 7 19 -9 160 -37
322 -14 77 -23 141 -22 142 1 1 27 16 57 34 76 46 140 99 140 116 0 22 -16 17
-67 -22 -25 -19 -67 -46 -93 -59 l-47 -24 -11 67 c-6 37 -14 101 -17 142 -11
139 -15 160 -32 160 -14 0 -15 -14 -9 -117z"/>
<path d="M8468 3664 c-5 -4 -8 -13 -8 -21 0 -9 18 -13 65 -13 84 0 127 -18
147 -61 36 -78 31 -196 -18 -400 -23 -96 -28 -108 -52 -118 -80 -31 -121 -22
-144 33 -20 48 -13 229 16 386 23 129 22 170 -5 143 -16 -16 -69 -338 -68
-418 0 -115 32 -179 97 -191 38 -7 138 11 148 28 18 29 66 213 80 310 24 164
5 246 -68 301 -26 20 -176 37 -190 21z"/>
<path d="M8440 2967 c0 -16 -8 -28 -25 -35 -14 -6 -25 -16 -25 -22 0 -20 29
-22 60 -3 25 14 30 23 28 48 -4 38 -38 49 -38 12z"/>
<path d="M3730 2666 c-144 -75 -236 -129 -238 -139 -2 -10 2 -17 9 -17 12 0
377 186 452 230 36 21 50 50 25 50 -7 0 -119 -56 -248 -124z"/>
<path d="M3248 2551 c-151 -115 -195 -157 -182 -171 8 -8 26 1 70 34 256 195
278 216 236 216 -11 0 -66 -36 -124 -79z"/>
<path d="M10684 2556 c-44 -19 -76 -63 -72 -100 4 -40 31 -41 38 -2 3 16 18
38 33 50 25 18 42 21 130 20 119 0 233 -27 343 -79 120 -58 153 -113 94 -156
-37 -27 -161 -56 -277 -64 l-101 -7 -4 48 c-3 47 1 91 18 178 6 31 4 38 -7 34
-29 -9 -44 -62 -47 -165 l-4 -103 -78 0 c-54 0 -80 4 -82 12 -3 9 -20 6 -59
-13 -30 -15 -66 -29 -80 -33 -24 -5 -27 -2 -39 39 -20 73 -117 172 -143 146
-7 -7 3 -23 36 -54 40 -37 77 -97 77 -125 0 -5 -54 -12 -120 -15 -66 -3 -129
-11 -141 -17 -11 -7 -22 -10 -24 -8 -2 2 -7 53 -10 113 -8 135 -11 155 -30
155 -22 0 -20 -90 6 -291 12 -90 26 -209 33 -264 9 -82 14 -100 29 -103 13 -3
17 3 17 25 0 33 -18 187 -25 221 -4 15 -1 22 10 22 13 0 15 9 9 49 -6 45 -4
50 16 56 12 4 70 5 129 4 82 -3 108 -7 113 -19 4 -8 7 -72 7 -142 1 -105 4
-128 16 -128 21 0 28 56 23 181 l-5 109 36 10 c20 5 51 19 69 30 27 16 37 18
48 9 9 -8 40 -10 90 -7 90 6 79 22 119 -181 27 -132 42 -168 62 -147 4 3 -8
75 -25 159 -18 84 -32 158 -32 165 0 8 15 12 43 12 62 0 226 26 283 45 27 10
64 28 82 42 105 79 -47 213 -322 283 -92 23 -235 26 -282 6z"/>
<path d="M3674 2535 c-4 -10 9 -101 29 -204 21 -102 40 -216 43 -253 7 -69 27
-107 40 -74 9 24 -13 182 -51 367 -33 160 -48 200 -61 164z"/>
<path d="M3360 2354 c-36 -31 -96 -78 -135 -105 l-70 -50 -19 71 c-17 64 -35
86 -50 61 -9 -14 60 -234 94 -300 35 -70 90 -121 129 -121 15 0 47 14 70 30
47 34 141 156 141 183 0 32 -28 17 -58 -30 -41 -63 -110 -132 -140 -140 -36
-9 -73 24 -109 97 -53 107 -53 108 24 160 63 42 200 153 215 174 8 13 0 26
-15 26 -7 -1 -41 -26 -77 -56z"/>
<path d="M9493 2395 c-14 -10 -23 -27 -23 -43 0 -38 46 -132 65 -132 19 0 19
4 -5 66 -10 29 -16 54 -13 58 4 3 36 6 73 6 61 0 72 -3 140 -46 150 -92 244
-194 238 -257 -3 -27 -9 -34 -43 -45 -22 -8 -77 -16 -122 -19 l-81 -6 -12 59
c-45 223 -61 270 -76 229 -4 -10 0 -57 10 -104 23 -114 27 -138 20 -123 -3 6
-12 12 -20 12 -25 0 -16 -50 15 -79 27 -25 30 -37 40 -127 6 -54 12 -117 14
-139 1 -30 7 -41 21 -43 18 -4 19 1 13 89 -4 52 -10 117 -13 145 -6 50 -6 52
17 47 35 -6 172 13 204 28 16 8 37 26 48 41 20 26 20 28 2 75 -58 151 -425
372 -512 308z"/>
<path d="M2953 2358 c16 -134 29 -358 23 -390 -15 -78 -48 -54 -220 155 -154
189 -217 197 -188 24 22 -123 106 -302 142 -302 25 0 23 72 -4 185 -13 58 -23
106 -22 108 2 1 38 -40 80 -93 160 -196 225 -211 247 -59 10 69 8 109 -13 307
-10 95 -14 107 -31 107 -17 0 -18 -5 -14 -42z m-307 -244 c17 -60 35 -125 38
-144 l7 -35 -17 30 c-21 37 -70 179 -80 230 -5 30 -4 37 7 33 8 -3 28 -53 45
-114z"/>
<path d="M8422 2296 c-30 -26 -92 -133 -92 -160 0 -32 -17 -15 -26 26 -6 28
-15 44 -27 46 -22 4 -22 -14 2 -104 13 -51 17 -92 13 -142 -6 -93 4 -153 33
-197 l25 -36 -78 3 c-63 2 -77 0 -77 -12 0 -23 77 -32 280 -33 193 -2 252 7
337 49 118 59 125 173 15 251 -73 52 -136 62 -262 41 -19 -3 -21 4 -27 97 -10
136 -15 162 -41 180 -29 20 -41 19 -75 -9z m66 -41 c7 -15 12 -72 12 -130 0
-136 1 -137 123 -129 88 6 94 5 147 -23 58 -31 100 -81 100 -119 0 -35 -52
-79 -117 -99 -42 -13 -103 -19 -220 -22 l-163 -5 0 60 c0 33 -7 97 -16 143
-19 98 -11 147 37 250 48 101 75 122 97 74z"/>
<path d="M8063 2268 c-6 -7 -42 -87 -81 -178 -38 -91 -91 -210 -117 -265 l-47
-99 -20 24 c-28 35 -81 141 -155 315 -64 150 -78 175 -94 175 -12 0 -11 -54 1
-66 5 -5 55 -108 109 -228 55 -120 108 -227 117 -238 39 -42 53 -24 164 197
114 227 162 347 144 365 -8 8 -14 7 -21 -2z"/>
<path d="M2362 1880 c-25 -24 -27 -33 -10 -63 6 -12 14 -38 18 -57 6 -38 28
-49 64 -31 11 6 35 12 51 13 33 3 33 6 18 83 -9 42 -27 57 -88 69 -23 5 -36 1
-53 -14z"/>
<path d="M4435 1453 c-113 -15 -225 -83 -225 -136 0 -54 80 -91 271 -127 195
-37 265 -95 237 -197 -12 -42 -88 -128 -138 -153 -96 -49 -179 -48 -236 3 -26
22 -38 27 -46 19 -17 -17 34 -67 89 -88 106 -41 271 36 344 159 26 45 29 60
26 110 -6 104 -75 150 -282 188 -190 34 -253 71 -209 120 29 32 139 61 239 63
71 2 90 5 90 16 0 23 -78 34 -160 23z"/>
<path d="M3790 1421 c-118 -38 -213 -144 -213 -239 0 -48 22 -85 73 -119 48
-33 90 -43 230 -53 168 -13 202 -19 239 -41 43 -26 40 -56 -10 -113 -74 -84
-259 -191 -350 -203 -39 -6 -45 -3 -71 27 -33 40 -57 31 -37 -13 12 -27 13
-27 117 -27 102 0 105 1 181 40 85 45 178 121 211 175 31 50 29 103 -4 132
-35 30 -107 50 -208 58 -238 17 -338 62 -338 151 0 77 131 179 244 191 33 3
74 0 101 -7 59 -16 81 -1 39 27 -31 20 -158 29 -204 14z"/>
<path d="M3174 1336 c-50 -22 -102 -93 -127 -171 -16 -53 -21 -95 -21 -175 0
-164 40 -289 117 -368 90 -92 195 -78 323 45 71 68 111 130 95 146 -10 9 -18
6 -35 -18 -48 -67 -132 -146 -179 -170 -61 -30 -101 -32 -144 -5 -115 69 -178
366 -117 547 46 137 140 176 272 113 55 -26 64 -28 69 -13 8 20 -15 37 -84 63
-62 23 -124 25 -169 6z"/>
<path d="M8514 1016 c-50 -23 -97 -96 -61 -96 7 0 24 13 38 29 34 38 70 47
138 33 140 -30 207 -140 204 -337 -2 -159 -44 -314 -98 -365 l-23 -21 -37 113
c-40 120 -59 154 -74 129 -6 -9 5 -54 30 -125 21 -61 39 -117 39 -123 0 -8
-14 -13 -37 -13 -108 0 -246 136 -293 289 -54 174 8 282 193 336 67 19 72 41
8 38 -48 -2 -132 -38 -177 -76 -32 -27 -69 -93 -78 -138 l-6 -26 -47 23 c-30
15 -89 30 -158 39 -60 9 -126 20 -145 25 -53 15 -100 47 -100 69 0 37 80 51
300 54 116 2 135 4 138 18 2 14 -11 18 -80 23 -85 7 -261 -6 -327 -24 -21 -5
-48 -21 -61 -35 l-25 -26 20 -36 c26 -47 73 -71 177 -89 46 -8 119 -22 162
-30 118 -21 146 -56 112 -139 -21 -50 -93 -123 -149 -152 -62 -31 -163 -53
-249 -53 -83 0 -265 31 -382 65 -57 16 -93 22 -99 16 -17 -17 2 -29 86 -55
130 -39 155 -45 271 -56 272 -25 467 45 543 195 l26 50 12 -35 c27 -78 71
-147 129 -205 72 -72 119 -96 201 -104 l59 -6 28 -89 c30 -97 41 -117 59 -99
8 8 2 38 -22 111 l-33 101 27 21 c36 28 83 129 103 220 10 44 17 127 18 200 1
119 0 128 -27 178 -38 71 -86 123 -147 156 -61 33 -141 43 -186 22z"/>
<path d="M9046 902 c-3 -6 2 -27 11 -48 28 -64 22 -219 -15 -413 -18 -90 -32
-187 -32 -215 0 -98 55 -156 149 -156 63 0 221 39 228 56 10 26 -5 27 -94 4
-59 -15 -105 -21 -142 -18 -111 10 -125 76 -69 329 40 182 45 358 13 423 -20
40 -39 54 -49 38z"/>
<path d="M7993 850 c-28 -11 -30 -40 -4 -40 32 0 81 22 81 36 0 16 -42 18 -77
4z"/>
</g>
</svg>
